<svg id="Layer_1" data-name="Layer 1" xmlns="http://www.w3.org/2000/svg" width="4000" height="4000" viewBox="0 0 4000 4000">
  <defs>
    <style>
      .cls-1 {
        fill: #0C0C0C;
      }

      .cls-2 {
        fill: #fff;
      }
    </style>
  </defs>
  <title>logo</title>
  <rect class="cls-1" width="4000" height="4000"/>
  <polygon class="cls-2" points="3253.03 2677.07 3252.27 2677.07 3026.51 2292.23 3028.32 2292.23 2223.9 923.2 1764.25 925.07 1994.04 1319.53 2292.61 1831.91 2779.19 2677.07 2779.13 2677.07 2784.3 2685.71 2565.28 2685.71 2490.18 2556.82 2416.16 2428.49 1959.58 2428.49 1958.65 2430.1 2181.96 2823.2 2182.23 2823.2 2325.69 3076.8 2342.33 3076.8 2793.17 3076.8 3017.95 3076.8 3017.95 3076 3018.43 3076.8 3253.03 2677.07"/>
  <polygon class="cls-2" points="1647.77 1902.26 1834.36 2230.71 2296.22 2230.71 1878.04 1505.67 1878.22 1505.36 1864.95 1482.97 1840.91 1441.28 1840.58 1441.84 1650.96 1121.77 1215.12 1873.55 1215.97 1875.04 1083.13 2104.09 1422.04 2685.71 1208.93 2685.71 976.83 2287.37 746.97 2683.7 969.34 3076.8 1150.13 3076.8 1436.82 3076.8 1649.94 3076.8 1825.76 3076.8 2117.41 3076.8 1538.18 2091.01 1647.77 1902.26"/>
</svg>