<svg id="Layer_1" data-name="Layer 1" xmlns="http://www.w3.org/2000/svg" width="4000" height="3437.42" viewBox="0 0 4000 3437.42">
  <defs>
    <style>
      .cls-1 {
        fill: #fff;
      }
      .cls-2 {
        fill: #fff;
      }
    </style>
  </defs>
  <title>logo</title>
  <polygon class="cls-1" points="4000 2799.41 3998.79 2799.41 3638.43 2185.15 3641.34 2185.15 2357.37 0 1623.71 2.99 1990.48 632.59 2467.04 1450.42 3243.69 2799.41 3243.59 2799.41 3251.85 2813.19 2902.26 2813.19 2782.39 2607.46 2664.25 2402.63 1935.49 2402.63 1934 2405.21 2290.43 3032.64 2290.86 3032.64 2519.85 3437.42 2546.4 3437.42 3265.99 3437.42 3624.78 3437.42 3624.78 3436.15 3625.55 3437.42 4000 2799.41"/>
  <polygon class="cls-2" points="1437.8 1562.71 1735.61 2086.95 2472.8 2086.95 1805.34 929.69 1805.62 929.21 1784.44 893.46 1746.07 826.93 1745.55 827.82 1442.89 316.94 747.23 1516.88 748.59 1519.26 536.55 1884.86 1077.51 2813.19 737.36 2813.19 366.89 2177.4 0 2809.99 354.94 3437.42 643.5 3437.42 1101.09 3437.42 1441.26 3437.42 1721.88 3437.42 2187.41 3437.42 1262.87 1863.98 1437.8 1562.71"/>
</svg>